<svg width="733" height="1080" viewBox="0 0 733 1080" fill="none" xmlns="http://www.w3.org/2000/svg">
<g clip-path="url(#clip0_100_1886)">
<rect width="733" height="1080" fill="#9E76D9"/>
<mask id="mask0_100_1886" style="mask-type:luminance" maskUnits="userSpaceOnUse" x="-512" y="-145" width="1454" height="1318">
<path d="M941.775 -145H-512V1173H941.775V-145Z" fill="white"/>
</mask>
<g mask="url(#mask0_100_1886)">
<path d="M173.971 -34.3565C146.573 -34.3565 124.362 -12.1456 124.362 15.253C124.362 42.6516 146.573 64.8625 173.971 64.8625C201.37 64.8625 223.581 42.6516 223.581 15.253C223.581 -12.1456 201.37 -34.3565 173.971 -34.3565ZM173.971 43.2342C158.519 43.2342 145.99 30.7079 145.99 15.253C145.99 -0.199219 158.516 -12.7281 173.971 -12.7281C189.424 -12.7281 201.952 -0.201855 201.952 15.253C201.952 30.7052 189.424 43.2342 173.971 43.2342Z" fill="white"/>
<path d="M61.812 95.825C65.2045 116.874 79.0673 135.971 98.0307 145.714C116.994 155.457 140.592 155.607 159.679 146.107C172.94 139.506 184.644 122.596 175.769 110.737C168.154 100.559 150.54 104.107 143.37 114.604C136.197 125.098 136.896 139.04 139.484 151.484C148.95 197.003 181.12 237.212 223.454 256.431C265.788 275.653 317.232 273.41 357.732 250.577C373.139 241.888 387.305 230.019 395.448 214.313C403.591 198.611 404.845 178.672 395.69 163.536C393.489 159.896 390.276 156.327 386.04 155.915C376.759 155.014 373.606 168.79 377.399 177.309C383.623 191.28 399.183 200.493 414.427 199.225C429.671 197.957 443.497 186.306 447.327 171.497C450.87 157.8 446.412 143.202 448.553 129.218C451.774 108.164 471.699 90.9748 492.996 90.872" stroke="#5B7799" stroke-width="2.636" stroke-miterlimit="10" stroke-dasharray="15.82 15.82"/>
<path d="M44.971 340.456C93.0962 340.456 132.109 301.443 132.109 253.318C132.109 205.193 93.0962 166.18 44.971 166.18C-3.1541 166.18 -42.1672 205.193 -42.1672 253.318C-42.1672 301.443 -3.1541 340.456 44.971 340.456Z" stroke="#5B7799" stroke-width="2.636" stroke-miterlimit="10" stroke-dasharray="16.1 16.1"/>
<path d="M157.233 373.47H-29.4221V430.289H157.233V373.47Z" stroke="#5B7799" stroke-width="2.636" stroke-miterlimit="10" stroke-dasharray="15.82 15.82"/>
<path d="M49.3178 430.038H-29.4221V480.562H49.3178V430.038Z" stroke="#5B7799" stroke-width="2.636" stroke-miterlimit="10" stroke-dasharray="15.82 15.82"/>
<path d="M36.2192 318.224C36.0294 312.148 40.8032 307.071 46.8792 306.882C52.9552 306.692 58.0347 311.466 58.2219 317.541C58.235 317.924 58.1692 318.288 58.1428 318.659C62.4157 317.805 66.5358 316.55 70.4661 314.927C70.2157 314.605 69.9415 314.312 69.7227 313.957C66.52 308.79 68.1148 302.005 73.2813 298.802C78.4479 295.599 85.2329 297.194 88.4331 302.361C88.6492 302.709 88.7863 303.075 88.9576 303.436C92.2052 300.587 95.1707 297.429 97.8119 294.01C97.406 293.852 96.9948 293.72 96.5994 293.509C91.243 290.636 89.2318 283.962 92.105 278.608C94.9783 273.251 101.653 271.24 107.009 274.113C107.41 274.327 107.752 274.604 108.116 274.859C109.508 270.789 110.515 266.545 111.1 262.172C110.626 262.251 110.154 262.346 109.658 262.362C103.582 262.552 98.5026 257.778 98.3154 251.702C98.1256 245.626 102.899 240.547 108.975 240.359C109.482 240.344 109.969 240.412 110.459 240.462C109.611 236.092 108.337 231.879 106.685 227.867C106.273 228.215 105.865 228.566 105.393 228.859C100.227 232.061 93.4415 230.467 90.2387 225.3C87.036 220.133 88.6308 213.348 93.7973 210.148C94.2718 209.856 94.77 209.645 95.2656 209.431C92.3554 206.099 89.1211 203.06 85.6126 200.363C85.4228 200.909 85.225 201.455 84.943 201.979C82.0697 207.336 75.398 209.347 70.0391 206.474C64.6827 203.6 62.6714 196.926 65.5447 191.57C65.8241 191.048 66.1694 190.584 66.5174 190.128C62.3604 188.71 58.0268 187.692 53.5561 187.117C53.6721 187.705 53.7749 188.301 53.796 188.923C53.9858 194.999 49.212 200.079 43.1361 200.266C37.0601 200.456 31.9805 195.682 31.7933 189.609C31.7749 189.015 31.8408 188.441 31.9146 187.871C27.4967 188.749 23.2421 190.062 19.1932 191.762C19.5834 192.21 19.9683 192.669 20.2925 193.193C23.4952 198.36 21.9004 205.145 16.7339 208.348C11.5673 211.548 4.78222 209.956 1.57948 204.789C1.27898 204.304 1.06021 203.793 0.844059 203.281C-2.46939 206.21 -5.48234 209.468 -8.15525 212.992C-7.62541 213.18 -7.09821 213.367 -6.58683 213.641C-1.23047 216.514 0.7808 223.186 -2.09244 228.542C-4.96568 233.899 -11.6401 235.91 -16.9964 233.037C-17.4656 232.784 -17.8742 232.47 -18.2933 232.164C-19.6666 236.282 -20.6473 240.573 -21.1956 244.994C-20.6842 244.904 -20.178 244.804 -19.6429 244.788C-13.567 244.598 -8.48737 249.372 -8.30021 255.448C-8.11042 261.524 -12.8842 266.603 -18.9602 266.791C-19.4294 266.806 -19.8775 266.738 -20.3336 266.696C-19.4505 271.016 -18.1562 275.178 -16.485 279.143C-16.1239 278.85 -15.7812 278.542 -15.3752 278.291C-10.2087 275.089 -3.42364 276.684 -0.220903 281.85C2.9792 287.017 1.38708 293.802 -3.77948 297.004C-4.13534 297.226 -4.51492 297.368 -4.88659 297.545C-2.01863 300.774 1.15774 303.716 4.59244 306.336C4.74797 305.946 4.86922 305.55 5.07483 305.173C7.94807 299.817 14.6198 297.806 19.9761 300.679C25.3325 303.552 27.3438 310.227 24.4705 315.583C24.2834 315.931 24.0409 316.223 23.8247 316.542C27.8552 317.892 32.0569 318.859 36.38 319.418C36.322 319.018 36.2324 318.633 36.2192 318.224ZM0.127058 254.662C-0.642653 229.902 18.8031 209.207 43.5631 208.435C68.323 207.665 89.0182 227.111 89.7906 251.871C90.5603 276.631 71.1145 297.329 46.3546 298.098C21.5947 298.868 0.899406 279.422 0.127058 254.662Z" fill="white"/>
<path d="M78.5139 244.147C73.4817 225.666 54.3549 214.727 35.8766 219.759C17.3982 224.789 6.45616 243.918 11.4883 262.396C16.5178 280.875 35.6472 291.814 54.1256 286.785C72.604 281.75 83.546 262.623 78.5139 244.147ZM50.6962 274.182C39.1663 277.321 27.2305 270.494 24.091 258.964C20.9515 247.434 27.7788 235.496 39.3086 232.357C50.8385 229.217 62.7743 236.044 65.9138 247.577C69.0533 259.107 62.226 271.042 50.6962 274.182Z" fill="#70A1BD"/>
<path d="M642.85 703.323V901.45" stroke="black" stroke-width="10.544" stroke-miterlimit="10"/>
<path d="M726.416 899.489H562.573" stroke="black" stroke-width="13.18" stroke-miterlimit="10"/>
<path d="M781.445 600.854C770.258 634.405 753.214 665.014 725.72 687.839C713.842 697.7 703.815 702.751 689.185 706.692C671.508 711.455 653.133 712.578 634.913 713.181C608.334 714.062 581.721 713.993 555.147 712.973C538.683 712.341 519.909 710.124 510.422 696.651C493.916 673.209 510.662 644.25 533.92 635.81C556.297 627.688 580.076 623.85 601.232 612.441C645.544 588.546 657.182 534.598 668.793 489.891C677.239 457.368 682.637 421.613 706.071 395.622C735.545 362.931 782.099 369.355 801.666 408.737C815.719 437.023 805.504 471.885 802.478 501.605C799.077 535.014 792.089 568.934 781.445 600.854Z" fill="#70A1BD"/>
<path d="M368.241 782.941C359.935 785.387 346.236 782.411 341.781 776.828C336.662 770.414 342.886 759.783 345.748 753.594C368.302 704.81 379.855 654.204 420.426 615.718C423.463 612.837 426.702 609.985 430.649 608.59C438.491 605.822 447.738 609.837 452.298 616.794C457.264 624.367 459.357 639.611 460.306 648.868C461.743 662.897 456.882 677.327 449.615 689.157C440.375 704.195 427.122 716.263 414.255 728.344C401.389 740.425 388.512 753.022 380.346 768.669C378.129 772.919 376.181 777.492 372.599 780.679C371.468 781.686 369.97 782.432 368.241 782.941Z" fill="#D98C73"/>
<path d="M359.319 768.632C352.534 765.556 347.299 760.811 343.743 754.849C341.038 755.7 337.801 757.095 335.872 757.25C331.048 757.638 326.113 757.063 321.326 756.512C313.737 755.637 277.816 745.42 277.801 760.337C277.79 770.76 303.61 781.662 310.751 785.107C320.085 789.61 329.753 793.271 339.736 796.044C345.841 797.742 360.112 805.283 365.653 800.844C366.824 799.908 367.53 798.525 368.202 797.185C372.161 789.293 376.123 781.401 380.083 773.509C372.926 772.99 365.83 771.585 359.319 768.632Z" fill="black"/>
<path d="M451.506 737.037C447.472 744.513 443.144 751.791 438.399 758.795C406.042 750.924 374.468 739.839 344.294 725.761C358.305 715.306 364.122 685.106 372.615 669.846C384.306 648.839 397.726 628.851 410.218 608.329C423.406 586.664 437.498 562.039 458.428 546.802C503.48 514.008 562.681 547.214 610.035 555.095C634.23 559.123 659.989 580.077 680.6 563.038C745.159 718.556 601.787 684.652 580.053 665.826C567.519 648.415 521.584 584.895 500.021 628.276C482.508 663.511 470.197 702.387 451.506 737.037Z" fill="#E8654B"/>
<path d="M502.522 899.236C452.528 953.274 469.973 791.033 496.003 788.004C562.952 774.028 510.351 873.985 502.522 899.236Z" fill="#D98C73"/>
<path d="M432.412 841.884C459.426 839.499 513.05 848.996 526.423 840.184C535.962 833.9 539.626 798.567 541.609 787.846C544.893 770.077 546.715 752.084 549.701 734.267C551.657 722.595 553.276 698.404 562.349 689.771C572.099 680.5 614.151 684.916 612.198 666.047C611.492 659.222 597.708 650.634 593.185 645.76C586.866 638.952 580.732 632.003 574.134 625.455C561.192 612.613 546.272 598.589 528.69 592.518C515.549 587.979 491.707 590.291 487.631 607.586C469.145 686.025 450.472 765.25 432.412 841.884ZM553.352 686.524L553.376 698.011C553.054 694.376 553.004 690.38 553.352 686.524Z" fill="#E8654B"/>
<path d="M414.174 928.1C423.782 910.478 451.355 907.262 466.575 889.543C478.334 891.818 492.935 893.297 508.498 887.115C509.407 887.305 510.314 887.511 511.208 887.777C523.36 934.039 400.132 960.57 414.174 928.1Z" fill="black"/>
<path d="M628.386 676.612C604.214 668.683 583.966 642.078 562.963 623.549C463.775 549.072 472.872 687.797 457.76 740.222" stroke="#131834" stroke-width="2.636" stroke-miterlimit="10"/>
<path d="M749.096 536.453C760.399 566.586 745.247 591.62 714.322 581.542C660.714 562.102 627.07 355.553 714.97 439.283C729.371 469.088 738.702 503.938 749.096 536.453Z" fill="#D6906F"/>
<path d="M682.017 384.915C696.262 390.851 703.983 404.532 709.946 417.981C712.811 424.447 715.808 431.032 718.162 437.677C720.746 444.968 725.633 452.895 726.305 460.666C726.405 461.82 726.381 463.043 725.801 464.045C725.393 464.749 724.747 465.279 724.114 465.79C715.128 473.029 706.142 479.677 695.648 484.471C692.561 485.882 689.462 487.281 686.47 488.887C682.445 491.046 679.55 494.259 675.752 496.745C673.748 498.057 671.611 499.165 669.383 500.042C670.738 500.754 671.381 502.309 671.9 503.748C677.65 519.725 680.815 536.709 684.303 553.332C685.761 560.283 688.552 569.332 686.48 576.449C684.949 581.708 680.283 583.348 675.298 584.173C665.577 585.783 655.399 585.312 645.585 585.654C630.739 586.171 616.06 587.695 601.269 588.915C518.591 595.734 518.369 582.209 507.243 508.789C484.299 368.859 573.375 337.48 682.017 384.915Z" fill="#F2B430"/>
<path d="M552.013 473.983C561.331 612.8 500.93 591.409 500.869 558C483.479 384.132 554.928 395.24 552.013 473.983Z" fill="#D56D5B"/>
<path d="M535.496 475.348C549.493 473.698 563.477 471.943 577.448 470.082C573.114 436.697 583.527 384 563.572 359.087C494.15 348.978 501.615 434.445 491.783 480.146C506.368 478.662 520.937 477.064 535.496 475.348Z" fill="#F2B430"/>
<path d="M584.963 279.061C623.248 300.465 589.08 357.856 620.949 373.467C602.83 380.223 582.838 381.881 563.851 378.198C564.663 378.357 564.175 366.11 564.099 365.298C563.276 356.828 557.135 357.118 550.668 354.83C546.656 353.412 543.364 350.394 540.907 346.92C533.229 336.057 530.666 321.053 528.987 308.128C527.651 297.843 529.001 287.873 536.655 280.245C541.171 275.745 545.744 275.84 551.153 273.265C557.053 270.455 561.191 270.32 567.65 271.865C573.733 273.32 579.519 276.019 584.963 279.061Z" fill="#D6906F"/>
<path d="M538.123 296.649C540.077 294.985 542.006 293.293 544.281 292.133C546.356 291.076 550.642 290.09 552.701 291.746C554.374 293.09 553.721 294.492 553.916 296.359C554.498 301.923 558.22 304.072 563.339 300.687C565.881 299.008 568.822 296.841 571.653 297.964C575.805 299.611 573.96 303.942 575.046 307.058C576.541 311.355 579.986 316.279 582.914 319.737C586.982 324.54 591.65 330.144 597.323 333.144C614.918 342.449 610.925 315.108 614.22 306.992C615.161 304.673 616.386 302.395 616.573 299.899C617.001 294.21 612.25 289.969 607.608 286.273C606.865 285.68 606.122 285.103 605.405 284.534C604.746 284.012 604.071 283.442 603.765 282.659C602.94 280.545 606.462 275.832 606.549 273.041C606.696 268.18 603.428 262.818 599.806 259.834C594.795 255.704 587.548 254.475 581.457 256.724C578.8 257.704 575.945 259.307 573.325 258.232C569.502 256.663 570.146 252.037 566.893 249.73C564.004 247.68 559.707 247.292 556.784 249.477C555.434 250.487 554.393 251.889 552.954 252.767C549.722 254.734 545.583 253.539 541.811 253.824C537.694 254.135 533.769 256.405 531.444 259.813C529.665 262.423 528.75 265.676 526.393 267.779C523.852 270.049 520.209 270.484 517.112 271.902C509.099 275.571 505.788 286.732 510.229 294.342C514.671 301.952 525.671 304.652 533.305 300.247C535.045 299.242 536.589 297.953 538.123 296.649Z" fill="black"/>
<path d="M593.688 309.599C595.747 312.277 596.885 315.752 596.619 319.384C596.337 323.235 594.112 326.984 590.675 328.742C575.471 336.523 562.575 309.781 580.302 304.941C585.709 303.465 590.68 305.682 593.688 309.599Z" fill="#D6906F"/>
<path d="M667.462 502.905C661.623 491.346 652.11 478.688 646.564 466.839" stroke="black" stroke-width="1.318" stroke-miterlimit="10"/>
<path d="M614.338 588.058C588.611 591.127 560.248 594.461 535.504 587.162C562.449 546.251 569.347 569.844 607.936 562.508C759.743 489.34 774.831 575.495 730.771 583.042C690.78 584.368 654.174 582.705 614.338 588.058Z" fill="#D6906F"/>
<path d="M419.696 379.796C419.509 381.053 419.744 382.377 420.387 383.476C417.619 384.383 416.359 388.255 418.062 390.619C418.199 390.809 418.355 391.004 418.362 391.236C418.373 391.521 418.159 391.758 417.983 391.982C414.166 396.917 423.919 404.058 426.795 406.77C430.76 410.508 435.562 412.799 441.061 413.439C445.885 434.849 450.205 456.137 454.043 477.734C458.327 501.84 464.229 533.414 492.993 538.222C496.486 538.805 501.201 539.561 504.689 538.763C528.249 533.369 507.757 484.258 503.16 472.156C496.457 454.519 488.469 437.366 479.86 420.585C475.782 412.638 471.544 404.772 467.126 397.009C465.154 393.543 463.298 389.863 461.066 386.56C458.042 382.092 454.499 378.478 452.775 373.124C452.148 371.176 451.726 369.165 451.529 367.127C451.186 363.574 451.505 359.994 451.874 356.444C451.932 355.877 451.979 355.255 451.647 354.794C451.204 354.179 450.253 354.148 449.599 354.525C448.945 354.902 448.524 355.574 448.149 356.23C445.735 360.458 444.129 365.145 443.444 369.966C443.304 370.952 443.215 371.872 442.819 372.771C438.132 369.966 428 360.35 424.067 369.447C423.286 371.253 423.366 373.409 424.28 375.151C422.506 375.449 420.911 376.662 420.15 378.291C419.923 378.768 419.773 379.277 419.696 379.796Z" fill="#D6906F"/>
<path d="M537.014 444.871C539.555 458.741 539.426 480.199 540.889 497.333" stroke="black" stroke-width="1.318" stroke-miterlimit="10"/>
<path d="M423.247 408.354L421.513 419.908L427.86 410.131L423.247 408.354Z" fill="#5B7799"/>
<path d="M680.18 536.364C690.16 537.368 699.99 539.867 709.239 543.75" stroke="black" stroke-width="1.318" stroke-miterlimit="10"/>
<path d="M453.77 336.218C446.668 354.77 432.508 391.494 425.406 410.047" stroke="black" stroke-width="7.908" stroke-miterlimit="10"/>
<path d="M546.62 339.784C550.611 339.37 554.444 337.57 557.309 334.763" stroke="black" stroke-width="2.636" stroke-miterlimit="10"/>
<mask id="mask1_100_1886" style="mask-type:luminance" maskUnits="userSpaceOnUse" x="528" y="270" width="93" height="111">
<path d="M584.963 279.061C623.248 300.465 589.08 357.856 620.949 373.467C602.83 380.223 582.838 381.881 563.851 378.198C564.663 378.357 564.175 366.11 564.099 365.298C563.276 356.828 557.135 357.118 550.668 354.83C546.656 353.412 543.364 350.394 540.907 346.92C533.229 336.057 530.666 321.053 528.987 308.128C527.651 297.843 529.001 287.873 536.655 280.245C541.171 275.745 545.744 275.84 551.153 273.265C557.053 270.455 561.191 270.32 567.65 271.865C573.733 273.32 579.519 276.019 584.963 279.061Z" fill="white"/>
</mask>
<g mask="url(#mask1_100_1886)">
<path d="M557.775 358.165C557.709 357.967 557.659 357.748 557.588 357.559C563.635 356.857 570.08 355.315 575.041 352.157C572.811 356.673 565.902 363.54 560.64 368.63C560.546 367.288 560.018 361.344 557.775 358.165Z" fill="black"/>
</g>
<path d="M591.716 315.546C589.476 311.365 583.974 309.27 579.519 310.901C577.682 311.574 575.94 312.979 575.589 314.903" stroke="black" stroke-width="1.318" stroke-miterlimit="10"/>
<path d="M582.082 310.683C585.147 311.948 586.779 315.902 585.493 318.962" stroke="black" stroke-width="1.318" stroke-miterlimit="10"/>
<path d="M428.129 365.714C433.871 365.938 439.543 367.747 444.357 370.884C445.374 371.548 446.447 372.42 446.55 373.633C446.724 375.686 444.169 376.772 442.119 376.989C439.04 377.315 435.906 377.144 432.879 376.488C430.657 376.005 428.359 375.167 426.98 373.361C425.599 371.553 425.609 368.553 427.512 367.309" fill="#D6906F"/>
<path d="M442.792 387.551C441.909 393.514 439.851 407.013 433.068 407.102C431.816 407.118 430.614 406.636 429.457 406.159C427.772 405.465 426.085 404.775 424.401 404.081C423.571 403.741 422.732 403.396 421.992 402.885C418.757 400.66 418.293 395.957 419.379 392.185C420.502 388.284 423.8 378.568 428.518 377.874C429.581 377.719 430.656 377.98 431.7 378.241C434.31 378.892 436.917 379.54 439.526 380.191C440.336 380.392 441.171 380.608 441.82 381.13C443.312 382.334 443.24 384.599 442.951 386.497C442.903 386.816 442.85 387.169 442.792 387.551Z" fill="#D6906F"/>
<path d="M793.737 550.64C679.988 501.89 537.808 609.183 597.721 718.119" stroke="black" stroke-width="7.908" stroke-miterlimit="10"/>
<path d="M444.528 370.322C445.224 371.047 446.31 371.321 446.942 372.101C447.933 373.324 447.309 375.283 446.062 376.243C444.815 377.202 443.17 377.431 441.61 377.626" stroke="black" stroke-width="1.318" stroke-miterlimit="10"/>
<path d="M432.175 406.325C433.612 406.765 435.085 407.081 436.577 407.271C438.267 407.487 440.336 407.358 441.172 405.871C442.144 404.139 440.679 402.089 439.308 400.652C441.499 400.626 444.063 400.051 444.931 398.04C445.545 396.614 445.033 394.903 444.053 393.698C443.075 392.494 441.702 391.687 440.357 390.907C442.622 390.651 445.131 390.229 446.523 388.421C447.406 387.272 447.656 385.664 447.163 384.301C446.67 382.938 445.447 381.863 444.034 381.546" stroke="black" stroke-width="1.318" stroke-miterlimit="10"/>
<path d="M816.665 578.513H331.488V594.619H816.665V578.513Z" fill="#ADACA5"/>
<path d="M406.923 578.782H613.403C616.118 578.782 618.319 576.581 618.319 573.866C618.319 571.151 616.118 568.95 613.403 568.95H406.923C404.208 568.95 402.007 571.151 402.007 573.866C402.007 576.581 404.208 578.782 406.923 578.782Z" fill="black"/>
<path d="M401.329 578.782H586.179L570.094 472.562C569.535 468.874 566.403 466.122 562.768 466.122H392.57C388.175 466.122 384.87 470.084 385.545 474.539L401.329 578.782Z" fill="black"/>
<path d="M468.046 514.872C468.046 519.76 472.008 523.722 476.895 523.722C481.782 523.722 485.744 519.76 485.744 514.872C485.744 509.985 481.782 506.023 476.895 506.023C472.008 506.023 468.046 509.985 468.046 514.872Z" stroke="#6BA7B3" stroke-width="2.636" stroke-miterlimit="10"/>
<path d="M-0.387215 799.987C8.97322 793.163 13.8577 790.29 22.4801 782.548C39.5692 828.53 74.8152 903.674 79.5152 916.992C67.0812 923.276 58.7066 931.835 45.632 936.851C11.5565 899.038 2.67052 869.08 -35.0559 823.912C-23.2809 816.262 -11.7378 808.259 -0.387215 799.987Z" fill="#D98C73"/>
<path d="M-229.469 777.191C-270.253 773.053 -306.435 756.37 -336.05 728.196C-367.144 698.615 -380.316 651.441 -389.708 610.76C-398.041 574.662 -403.671 537.35 -398.963 500.604C-394.256 463.858 -378.218 427.444 -349.438 404.121C-338.117 394.948 -324.388 387.783 -309.819 387.746C-295.05 387.709 -280.992 395.085 -270.3 405.273C-259.609 415.461 -251.864 428.311 -244.81 441.286C-229.292 469.831 -216.381 500.388 -203.82 530.093C-192.206 557.562 -181.209 586.862 -159.135 607.897C-133.323 639.532 -95.9737 653.073 -62.1433 672.392C36.169 792.311 -164.642 794.818 -229.469 777.191Z" fill="#70A1BD"/>
<path d="M-317.062 650.579C-318.153 646.559 -319.503 642.573 -321.351 638.669C-324.095 632.868 -327.799 626.937 -327.003 620.568C-326.18 613.983 -320.742 608.98 -315.212 605.308C-300.556 595.571 -271.27 585.251 -253.774 591.691C-247.612 593.96 -242.64 598.539 -237.363 602.448C-187.922 639.052 -119.576 621.127 -64.9525 643.873C-21.6457 661.906 3.43851 707.448 19.6815 748.862C34.2718 786.059 53.9417 819.987 66.547 857.9C42.2193 866.95 11.8289 879.655 -12.4962 888.707C-14.3308 889.39 -16.2498 890.083 -18.1952 889.87C-22.65 889.379 -25.1489 884.629 -26.8729 880.493C-43.796 839.886 -60.7165 799.278 -77.6396 758.668C-90.5824 727.611 -137.593 739.312 -165.869 737.867C-190.824 736.592 -219.738 737.688 -244.011 730.911C-265.542 724.893 -287.963 715.019 -301.784 696.659C-312.465 682.467 -312.808 666.247 -317.062 650.579Z" fill="#F2B430"/>
<path d="M85.6392 906.226C219.914 892.859 104.067 939.943 57.3549 951.536C47.093 952.417 41.2437 936.021 33.0115 925.814C75.1743 921.489 58.7362 879.418 85.6392 906.226Z" fill="black"/>
<path d="M46.5838 717.31C48.6688 687.681 45.9695 656.566 29.2125 632.272C6.00514 598.629 -37.6813 586.63 -78.1412 580.849C-102.522 577.364 -129.767 575.519 -152.906 585.647C-178.019 596.641 -187.928 622.002 -210.49 636.195C-163.745 645.85 -127.015 682.709 -93.0241 713.674C-77.419 727.89 -62.4491 741.685 -43.6544 751.259C-18.3673 764.138 0.746338 789.95 20.6745 810.453C36.4299 784.335 43.3019 753.742 46.0908 723.367C46.2753 721.358 46.4414 719.337 46.5838 717.31Z" fill="#F2B430"/>
<path d="M-59.907 315.251C-52.861 300.777 -43.5955 287.736 -35.3738 273.955C-34.641 273.955 -29.7591 265.233 -28.9841 263.97C-26.5775 260.05 -24.7085 255.812 -22.2202 251.913C-17.2566 244.142 -11.4047 236.941 -4.80412 230.501C-3.41495 229.143 -1.88606 227.765 0.0197601 227.38C1.28241 229.064 0.317627 231.442 -0.673508 233.298C-3.15926 237.953 -8.2151 244.079 -8.77393 249.393C-7.60091 249.298 -6.38834 249.206 -5.26804 249.567C-4.14774 249.928 -3.12499 250.864 -3.03801 252.04C-2.98529 252.754 -3.21461 253.632 -2.65051 254.072C-2.18921 254.433 -1.52493 254.214 -0.939735 254.191C0.457344 254.135 1.64617 255.358 2.0363 256.7C2.42643 258.044 2.20765 259.478 1.98622 260.862C3.38857 260.396 4.86736 261.737 5.10988 263.195C5.34975 264.653 4.73293 266.103 4.09765 267.436C1.23759 273.444 -2.922 281.389 -9.37493 284.312C-9.88104 284.541 -10.4241 284.744 -10.8063 285.148C-11.0435 285.398 -11.2043 285.709 -11.3599 286.02C-16.703 296.685 -18.6352 308.793 -21.9908 320.172C-25.639 332.543 -29.6089 344.819 -33.2993 357.176C-38.2813 373.865 -43.6877 391.286 -56.0058 403.599C-63.2759 410.866 -73.3981 416.065 -83.5994 414.807C-91.9292 413.782 -99.8583 407.413 -101.914 399.131C-104.284 389.586 -98.2081 384.546 -93.0864 376.759C-80.2728 357.261 -70.0978 336.194 -59.907 315.251Z" fill="#D6906F"/>
<path d="M51.5929 595.737H-418.432V611.827H51.5929V595.737Z" fill="#ADACA5"/>
<path d="M-8.72716 595.745H-203.878L-186.897 483.607C-186.307 479.713 -183.001 476.809 -179.163 476.809H0.519913C5.15927 476.809 8.64932 480.992 7.93761 485.695L-8.72716 595.745Z" fill="black"/>
<path d="M76.7976 938.918V1114.26" stroke="black" stroke-width="10.544" stroke-miterlimit="10"/>
<path d="M159.542 535.697C159.381 536.129 159.239 536.569 159.112 537.02C155.266 550.822 178.953 558.759 188.353 563.333C191.459 564.843 194.825 566.274 198.252 565.829C202.556 565.27 205.891 561.925 208.869 558.767C218.641 548.413 228.413 538.059 238.184 527.705C258.358 506.329 278.803 484.574 292.222 458.428C295.989 451.092 300.449 436.494 295.937 428.63C286.547 412.271 280.708 422.966 271.416 429.548C235.048 455.309 202.775 492.675 169.793 522.815C165.705 526.553 161.445 530.557 159.542 535.697Z" fill="#D6906F"/>
<path d="M131.993 541.203C116.306 547.1 100.619 552.997 84.9295 558.891C76.2571 562.152 67.3289 565.568 60.6229 571.963C47.1767 584.787 46.1698 615.989 63.9759 625.977C84.8821 637.702 126.866 625.911 147.239 617.922C161.229 612.433 174.522 604.752 185.538 594.459C190.609 589.719 196.045 584.321 200.61 579.331C203.463 576.212 208.355 561.408 209.441 560.686C211.655 559.213 214.665 559.735 217.046 558.585C218.543 557.86 220.807 556.263 222.062 555.14C223.433 553.912 224.332 551.974 223.812 550.208C223.718 549.884 223.575 549.546 223.667 549.22C223.881 548.45 224.975 548.547 225.771 548.619C228.813 548.89 231.43 546.062 232.01 543.062C233.621 534.7 226.918 523.012 222.56 516.27C218.498 509.988 213.732 502.858 207.807 498.144C204.327 495.377 201.238 491.251 196.44 490.943C192.855 490.711 189.204 492.498 187.188 495.474C185.011 498.69 184.81 502.805 183.648 506.514C183.313 507.579 182.778 508.736 181.718 509.089C180.977 509.337 180.176 509.115 179.401 509.023C176.177 508.636 174.706 510.578 172.118 511.767C169.123 513.143 166.087 513.18 164.115 516.293C162.797 518.373 162.641 520.959 161.856 523.294C157.891 535.112 141.912 537.474 131.993 541.203Z" fill="#F2B430"/>
<path d="M208.031 702.023H425.503C426.602 702.023 427.552 701.251 427.773 700.173L453.587 574.778C453.883 573.342 452.786 571.995 451.318 571.995H233.845C232.746 571.995 231.797 572.767 231.575 573.845L205.761 699.237C205.466 700.676 206.565 702.023 208.031 702.023Z" fill="black"/>
<path d="M217.26 699.216H416.594C417.554 699.216 418.384 698.541 418.579 697.603L442.245 584.241C442.509 582.981 441.547 581.798 440.26 581.798H240.926C239.964 581.798 239.136 582.473 238.941 583.411L215.275 696.772C215.011 698.032 215.971 699.216 217.26 699.216Z" fill="#5B7799"/>
<path d="M431.69 711.898H158.163C155.224 711.898 152.841 709.586 152.841 706.734C152.841 703.882 155.224 701.57 158.166 701.57H431.688C434.627 701.57 437.01 703.882 437.01 706.734C437.012 709.586 434.629 711.898 431.69 711.898Z" fill="black"/>
<path d="M309.042 701.24H263.268V705.389H309.042V701.24Z" fill="black"/>
<path opacity="0.65" d="M411.317 651.691C410.505 649.546 409.345 647.54 407.819 645.789C405.526 643.159 402.36 641.103 398.809 640.852C399.6 640.077 399.328 637.784 399.626 636.487C401.15 629.879 398.224 622.471 392.593 618.686C387.364 615.172 380.861 615.251 375.283 617.793C371.5 619.516 371.247 612.655 370.172 610.238C368.26 605.946 365.614 601.884 361.834 599.014C356.354 594.851 348.997 593.636 342.214 594.799C335.434 595.961 329.184 599.319 323.723 603.505C316.387 558.048 318.013 510.576 314.291 464.665C314.167 463.152 314.019 461.562 313.168 460.305C312.203 458.876 310.519 458.138 308.927 457.474C304.598 455.668 300.27 453.862 295.942 452.057C294.582 451.49 293.069 450.915 291.674 451.398C289.557 452.133 288.946 454.78 288.661 457.004C286.023 477.647 280.424 499.025 280.424 519.781C280.526 529.173 278.845 538.944 278.001 548.302C276.309 567.1 274.421 585.878 272.342 604.636C272.669 601.697 264.935 597.559 262.82 596.747C258.352 595.028 253.194 595.626 248.952 597.754C241.593 601.444 236.026 608.793 234.947 617.012C233.5 615.591 231.236 615.465 229.214 615.631C219.245 616.451 209.879 622.635 205.208 631.481C200.363 640.66 199.319 653.742 202.498 663.564C204.67 670.275 209.183 676.359 215.415 679.667C221.127 682.699 227.994 683.244 234.283 681.737C237.101 681.059 239.813 679.986 242.365 678.616C244.569 677.432 246.767 674.959 249.008 674.097C251.952 672.967 251.931 675.165 253.89 677.772C255.353 679.72 257.013 681.515 258.811 683.157C260.577 684.771 262.478 686.234 264.478 687.544C268.066 689.89 271.981 691.738 276.061 693.05C280.01 694.321 284.248 695.494 288.376 695.868C297.552 696.699 306.763 694.376 315.203 690.923C317.483 689.99 319.742 688.93 321.754 687.494C323.841 686.002 324.898 684.154 326.44 682.248C329.809 684.707 332.63 686.911 336.818 687.939C340.556 688.854 344.544 688.904 348.274 687.923C350.926 687.227 353.76 685.712 355.816 683.893C356.417 683.36 361.359 677.448 361.054 677.084C374.073 692.547 401.566 687.778 410.294 670.209C413.125 664.516 413.536 657.57 411.317 651.691Z" fill="#F9FBFC"/>
<path d="M380.679 645.715C384.896 640.673 386.114 633.137 383.18 627.142C380.56 621.783 375.367 618.122 369.434 617.542C366.924 617.297 364.228 617.558 361.868 618.544C361.36 616.598 360.55 614.735 359.409 613.011C355.571 607.206 348.533 603.598 341.711 603.002C334.95 602.414 328.341 605.184 323.997 610.388C321.999 612.779 320.143 615.776 319.574 618.876C319.408 619.772 319.384 620.576 319.439 621.33C318.548 620.993 317.623 620.721 316.579 620.637C313.545 620.389 310.43 621.322 308.028 623.191C308.308 617.476 307.765 612.043 307.765 606.352C307.801 596.222 307.941 586.092 308.002 575.962C308.244 535.821 307.593 495.896 305.26 455.8C305.179 454.376 305.057 452.855 304.182 451.73C303.51 450.868 302.487 450.364 301.501 449.892C298.533 448.469 295.565 447.045 292.597 445.622C291.967 445.319 291.239 445.013 290.594 445.282C289.776 445.622 289.563 446.661 289.465 447.538C286.795 471.144 285.485 495 282.409 518.391C279.251 542.403 275.168 566.24 271.396 590.159C265.169 582.08 249.989 584.178 242.342 591.034C235.198 597.442 235.159 608.066 239.023 617.012C235.715 619.24 231.12 621.124 228.748 623.768C224.823 628.139 222.034 633.55 221.022 639.355C218.831 651.923 225.084 665.538 236.044 672.068C247.005 678.597 261.956 677.611 271.965 669.7C273.747 681.802 284.924 691.822 297.147 692.28C303.357 692.512 309.502 690.251 314.357 686.431C316.437 684.797 321.016 680.371 322.835 676.417C330.669 688.06 353.568 688.524 365.443 684.689C382.456 679.195 387.928 660.306 379.762 646.675C380.07 646.364 380.389 646.066 380.679 645.715Z" fill="#F9FBFC"/>
<path opacity="0.66" d="M189.851 648.244C190.331 648.589 190.89 648.853 191.446 649.024C190.745 649.649 190.502 650.663 190.594 651.597C190.913 654.842 194.967 657.095 197.959 657.311C203.121 657.686 206.563 651.18 203.229 647.089C201.768 645.297 199.098 644.609 196.955 645.473C198.508 644.846 195.215 641.448 194.506 641.213C192.548 640.56 190.196 642.202 189.184 643.755C188.715 644.474 188.375 645.328 188.488 646.18C188.602 647.034 189.139 647.73 189.851 648.244Z" fill="#F9FBFC"/>
<path d="M393.582 601.083C393.582 603.888 391.309 606.16 388.505 606.16C385.7 606.16 383.428 603.888 383.428 601.083C383.428 598.278 385.7 596.003 388.505 596.003C391.309 596.003 393.582 598.278 393.582 601.083Z" stroke="#131834" stroke-width="1.318" stroke-miterlimit="10"/>
<path d="M402.386 612.592C402.386 613.902 401.326 614.961 400.016 614.961C398.706 614.961 397.646 613.902 397.646 612.592C397.646 611.284 398.706 610.222 400.016 610.222C401.324 610.225 402.386 611.284 402.386 612.592Z" stroke="#131834" stroke-width="1.318" stroke-miterlimit="10"/>
<path d="M326.554 647.463C326.554 652.324 322.613 656.265 317.752 656.265C312.891 656.265 308.95 652.324 308.95 647.463C308.95 642.603 312.891 638.662 317.752 638.662C322.613 638.662 326.554 642.603 326.554 647.463Z" stroke="#131834" stroke-width="1.318" stroke-miterlimit="10"/>
<path d="M405.771 659.99C405.771 661.3 404.712 662.359 403.402 662.359C402.091 662.359 401.032 661.3 401.032 659.99C401.032 658.682 402.091 657.62 403.402 657.62C404.712 657.62 405.771 658.68 405.771 659.99Z" stroke="#131834" stroke-width="1.318" stroke-miterlimit="10"/>
<path d="M239.21 663.037C232.852 663.037 227.698 657.883 227.698 651.525C227.698 645.167 232.852 640.014 239.21 640.014" stroke="#131834" stroke-width="1.318" stroke-miterlimit="10"/>
<path d="M253.428 670.483C254.551 670.483 255.461 669.573 255.461 668.451C255.461 667.329 254.551 666.419 253.428 666.419C252.306 666.419 251.396 667.329 251.396 668.451C251.396 669.573 252.306 670.483 253.428 670.483Z" stroke="#131834" stroke-width="1.318" stroke-miterlimit="10"/>
<path d="M352.958 612.932C352.958 615.924 350.533 618.349 347.541 618.349C344.549 618.349 342.124 615.924 342.124 612.932C342.124 609.94 344.549 607.515 347.541 607.515C350.533 607.515 352.958 609.94 352.958 612.932Z" stroke="#131834" stroke-width="1.318" stroke-miterlimit="10"/>
<path d="M308.948 663.712C308.948 668.947 304.704 673.191 299.469 673.191C294.234 673.191 289.99 668.947 289.99 663.712" stroke="#131834" stroke-width="1.318" stroke-miterlimit="10"/>
<path d="M243.23 598.687C240.902 602.491 240.365 607.341 241.801 611.561C243.235 615.784 246.617 619.3 250.779 620.898" stroke="#131834" stroke-width="1.318" stroke-miterlimit="10"/>
<path d="M303.531 512.724V625.795" stroke="#131834" stroke-width="1.318" stroke-miterlimit="10"/>
<path d="M293.377 495.796L289.312 566.891" stroke="#131834" stroke-width="1.318" stroke-miterlimit="10"/>
<path d="M754.511 1055.16L709.583 719.047" stroke="black" stroke-width="2.636" stroke-miterlimit="10"/>
<path d="M156.998 716.869L108.319 1057.12" stroke="black" stroke-width="2.636" stroke-miterlimit="10"/>
<path d="M747.605 711.455H101.389V729.137H747.605V711.455Z" fill="#ADACA5"/>
<path d="M121.164 960.986C111.116 961.896 101.178 962.37 91.5068 962.296C56.9356 962.033 20.978 949.243 -9.78944 933.904C-97.3969 890.228 -93.5194 798.812 -97.0991 713.484C-98.2352 686.392 -99.3502 659.011 -94.0492 632.388C-83.8953 581.397 -49.999 547.456 3.3589 546.193C9.41907 546.051 15.7666 546.449 20.999 549.515C26.4555 552.712 29.9825 558.411 32.4156 564.247C44.7046 593.744 36.6015 628.966 41.7628 660.005C47.5857 695.022 58.541 730.539 78.3241 760.305C89.543 777.183 103.458 790.029 119.725 801.867C136.996 814.438 161.395 812.746 182.009 814.91C196.027 816.383 210.796 819.402 222.838 827.122C252.993 846.468 281.736 900.237 246.857 928.405C236.582 936.704 223.576 940.718 210.812 944.108C182.715 951.573 151.436 958.248 121.164 960.986Z" fill="#447CA8"/>
<path d="M661.289 639.484C664.581 638.187 667.947 637.088 671.353 636.113C673.08 613.409 663.345 588.362 641.709 598.653C642.12 600.485 642.65 602.301 643.074 604.117C643.562 606.202 643.936 608.306 643.894 610.454C643.87 611.595 643.728 612.729 643.448 613.836C643.108 615.175 642.792 616.203 641.397 616.651C640.883 616.815 640.148 616.612 639.808 616.187C636.7 612.296 635.817 607.446 635.242 602.583C634.022 603.469 632.778 604.42 631.494 605.511C610.472 623.418 595.462 647.434 585.628 673.794C579.299 690.762 575.144 708.524 572.861 726.477C571.061 740.635 567.231 761.067 571.401 775.033C572.403 778.383 574.902 781.512 578.321 782.242C581.74 782.972 585.783 780.431 585.773 776.936C586.571 786.004 596.683 784.477 601.114 779.661C635.445 742.349 659.428 695.634 669.819 646.011C661.858 649.617 653.71 652.656 644.861 653.613C643.525 653.758 642.325 652.169 643.285 651.011C647.885 645.46 654.701 642.081 661.289 639.484ZM607.886 696.73C601.778 706.352 597.06 689.616 596.108 685.865C595.436 683.208 592.682 676.599 594.962 674.382C596.169 673.206 598.075 672.961 599.688 673.449C601.301 673.937 602.651 675.06 603.769 676.322C607.003 679.978 608.534 684.881 608.998 689.74C609.225 692.136 609.175 694.701 607.886 696.73Z" fill="#1C6652"/>
<path d="M570.149 799.21C561.661 774.439 546.488 752.608 531.502 731.135C520.17 714.897 504.088 700.992 482.789 706.156C475.659 707.885 469.309 711.811 465.444 718.087C458.361 729.593 461.598 744.713 467.616 756.81C478.292 778.275 499.475 798.437 518.025 813.278C518.388 813.568 518.789 813.81 519.158 814.093C519.103 814.05 524.182 812.408 524.541 812.342C527.211 811.831 529.916 811.504 532.633 811.362C533.78 811.304 535.022 811.304 535.955 811.971C539.714 814.659 531.956 817.224 530.351 817.688C529.76 817.857 526.462 819.075 525.904 818.724C531.173 822.019 536.677 825.019 541.807 828.554C544.506 830.412 547.268 832.305 550.426 833.182C553.584 834.06 557.264 833.76 559.721 831.59C565.212 826.74 556.919 822.528 565.338 820.087C569.195 818.969 571.665 814.968 572.134 810.982C572.603 806.996 571.451 803.008 570.149 799.21ZM479.76 731.053C478.3 730.31 476.903 729.408 475.548 728.52C474.992 728.156 474.38 727.706 474.32 727.044C474.264 726.467 474.683 725.924 475.203 725.663C475.722 725.402 476.323 725.37 476.906 725.37C480.67 725.37 484.748 726.446 487.618 728.918C488.301 729.506 488.341 730.674 487.995 731.425C487.616 732.25 486.783 732.785 485.865 732.767C483.683 732.722 481.666 732.023 479.76 731.053ZM525.208 783.159C524.654 783.8 523.608 784.116 522.759 783.868C522.725 783.876 522.704 783.897 522.669 783.905C518.091 784.696 513.264 783.467 508.891 782.152C504.294 780.768 499.652 779.007 495.561 776.458C493.831 775.38 493.992 773.076 495.856 772.241C500.58 770.127 506.033 770.459 510.915 771.835C516.148 773.308 521.156 776.026 524.97 779.927C525.835 780.813 526.075 782.152 525.208 783.159ZM535.572 757.318C535.288 761.046 532.929 764.62 530.954 767.949C530.034 767.978 529.544 766.884 529.378 765.978C528.866 763.162 529.127 760.221 530.068 757.521C530.258 756.976 533.725 750.992 533.98 751.38C535.306 753.393 535.723 755.376 535.572 757.318ZM566.037 807.01C565.27 808.95 564.192 810.766 562.85 812.363C562.718 812.521 562.555 812.688 562.349 812.688C562.196 812.688 562.059 812.59 561.94 812.49C560.796 811.525 560.211 810.009 560.153 808.515C560.095 807.02 560.517 805.541 561.113 804.171C561.906 802.341 565.886 799.02 566.883 802.626C567.086 803.359 566.933 804.139 566.738 804.874C566.545 805.597 566.311 806.311 566.037 807.01Z" fill="#1C6652"/>
<path d="M529.721 757.3C529.702 757.395 529.684 757.49 529.663 757.585C529.663 757.585 529.663 757.585 529.663 757.582C529.644 757.672 529.628 757.751 529.602 757.883C529.623 757.782 529.642 757.682 529.663 757.582C529.636 757.698 529.613 757.814 529.586 757.933C529.634 757.722 529.676 757.511 529.721 757.3Z" fill="#E3AE3D"/>
<path d="M706.979 742.921C704.988 743.693 702.948 744.505 700.771 744.521C700.436 744.523 700.064 744.502 699.822 744.27C699.614 744.07 699.558 743.762 699.54 743.472C699.371 740.775 701.646 738.474 704.137 737.433C706.132 736.6 712.285 736.805 713.582 735.353C715.316 733.41 712.883 728.449 711.186 727.089C708.27 724.756 704.029 725.521 700.436 726.533C693.719 728.423 687.161 730.79 680.787 733.56C680.566 733.658 682.461 750.523 681.741 752.534C680.745 755.32 675.42 758.961 672.985 755.328C672.365 754.403 672.381 753.209 672.418 752.097C672.568 747.584 673.088 742.863 672.75 738.395C654.957 746.15 639.407 758.246 626.341 772.821C623.148 776.38 616.35 782.247 616.429 787.24C616.477 790.245 618.704 793.864 619.139 796.996C619.627 800.502 619.598 804.076 619.02 807.569C618.889 808.37 618.617 809.3 617.847 809.559C616.609 809.975 615.749 808.33 615.504 807.047C614.492 801.793 614.236 796.513 613.664 791.233C602.327 802.589 596.272 821.17 592.663 836.435C591.798 840.1 585.767 855.43 589.605 857.808C591.163 858.773 615.76 848.21 619.695 847.238C640.525 842.098 660.511 830.926 674.904 813.326C683.721 802.542 691.937 791.194 698.68 778.986C704.132 769.12 713.487 753.098 712.58 741.524C710.706 741.487 708.863 742.188 706.979 742.921ZM659.032 767.881C658.653 773.696 654.957 781.032 652.943 783.845C652.284 784.767 650.908 785.69 650.186 784.817C649.951 784.535 649.899 784.15 649.862 783.787C649.693 782.136 649.704 779.171 650.036 778.375C649.569 772.992 648.573 766.286 652.777 762.045C653.763 761.051 655.355 760.295 656.518 761.077C658.587 762.472 659.219 764.989 659.032 767.881ZM693.292 775.396C687.612 778.646 681.378 782.279 674.79 783.033C672.571 783.286 666.642 783.563 665.628 780.695C664.418 777.273 670.248 773.973 672.631 772.845C678.884 769.89 685.806 768.361 692.723 768.414C694.276 768.424 696.116 768.693 696.809 770.082C697.776 772.025 695.665 774.041 693.78 775.117C693.619 775.209 693.456 775.301 693.292 775.396Z" fill="#1C6652"/>
<path d="M654.902 792.122C640.899 804.537 626.897 816.953 612.897 829.368C605.474 835.95 597.93 842.678 592.626 851.453C584.025 865.685 582.275 883.572 580.772 900.664" stroke="#1C0C03" stroke-width="1.318" stroke-miterlimit="10"/>
<path d="M535.501 777.46C553.573 805.536 570.968 836.275 573.246 870.769C574.553 890.579 570.765 910.768 574.358 930.219" stroke="#1C0C03" stroke-width="1.318" stroke-miterlimit="10"/>
<path d="M631.818 654.544C618.633 684.017 585.915 767.146 580.914 799.619C578.286 816.676 578.025 834.066 577.77 851.371C577.453 872.899 577.137 894.425 576.821 915.953" stroke="#1C0C03" stroke-width="1.318" stroke-miterlimit="10"/>
<path d="M541.564 965.23C541.564 965.23 619.597 965.705 619.637 965.23L627.869 884.861H529.678C529.678 884.861 541.546 965.075 541.564 965.23Z" fill="#447CA8"/>
<path d="M565.765 1026.45C572.962 1017.34 580.783 1008.2 590.14 1001.17C586.766 998.17 583.231 995.17 580.06 992.044C560.723 972.996 543.046 953.344 522.271 936.224C521.934 936.891 518.18 945.574 517.843 946.243C509.381 963.103 502.894 972.793 495.347 990.072C516.715 1007.28 540.067 1020.12 562.093 1031.26C563.311 1029.65 564.516 1028.04 565.765 1026.45Z" fill="#DE9983"/>
<path d="M651.694 950.825C651.691 950.806 651.691 950.79 651.689 950.772C651.322 946.728 648.207 943.262 644.231 942.429C638.474 941.222 633.772 945.26 629.733 949.029C621.665 953.851 614.334 963.401 607.436 969.835C601.597 975.284 595.291 984.937 588.185 988.456C585.52 989.774 582.233 990.188 579.607 988.793C578.708 988.316 550.419 1025.89 553.137 1028.82C561.675 1038.01 578.814 1045.61 588.211 1049.18C591.047 1050.26 594.258 1049.21 595.898 1046.66C606.537 1030.1 616.822 1013.31 626.868 996.385C632.343 987.162 637.784 977.912 643.098 968.596C645.863 963.746 652.192 956.676 651.694 950.825Z" fill="black"/>
<path d="M496.428 1037.42C509.927 1024.53 518.491 1012.57 525.685 995.729C534.007 976.244 538.33 954.231 550.764 937.492C552.712 934.869 551.76 931.134 548.747 929.866C527.44 920.904 466.451 882.305 458.791 877.868C426.903 859.4 394.934 841.512 361.56 826.126C333.141 813.025 309.401 796.194 277.933 788.745C245.802 781.14 212.523 779.34 179.61 779.4C157.918 779.44 136.229 780.136 114.58 781.483C94.6409 782.724 45.7089 783.067 43.8848 811.438C43.4129 818.769 49.8263 849.057 53.6538 854.047C57.439 858.979 75.3797 863.354 80.997 866.37C90.0596 871.236 98.3893 874.526 108.58 876.824C127.29 881.047 146.446 881.87 165.404 884.303C199.899 888.726 234.794 892.232 268.045 902.931C310.034 916.441 348.554 942.376 384.696 967.012C419.251 990.565 462.938 1017.72 494.227 1042.84C495.745 1041.56 494.97 1038.82 496.428 1037.42Z" fill="#E8654B"/>
<path d="M44.4831 487.735C44.5463 487.107 44.607 486.483 44.665 485.855C46.0357 471.389 44.7467 458.291 51.6504 445.271C58.1165 433.077 76.9692 415.514 92.3423 417.688C105.905 419.607 113.873 441.162 117.988 451.999C122.145 462.946 125.754 478.683 121.072 490.054C116.918 500.142 99.1985 499.033 98.8453 510.721C98.2917 529.133 97.7382 547.546 97.182 565.955C97.0897 568.971 96.979 572.079 95.719 574.823C90.2783 586.661 52.8498 578.766 44.0666 573.144C28.5669 563.225 33.6491 547.941 37.1814 532.444C40.5423 517.714 42.9805 502.771 44.4831 487.735Z" fill="#D6906F"/>
<path d="M113.937 762.699C117.071 754.725 120.353 746.859 123.819 738.956C127.813 729.849 132.645 721.206 134.155 711.431C136.124 698.681 131.972 685.925 133.915 673.244C134.782 667.587 136.991 662.22 138.127 656.61C140.637 644.232 137.758 631.212 132.194 619.872C125.588 606.416 110.631 595.732 107.69 581.4C105.678 571.607 115.856 572.638 119.491 566.749C124.858 558.058 118.576 547.733 108.725 544.947C79.5844 536.707 45.9649 528.137 19.916 548.371C6.36692 558.896 -3.06207 573.919 -9.96312 589.624C-24.7853 623.355 -25.729 663.44 -43.0607 695.75C-59.5173 726.425 -58.4471 767.865 -56.3883 802.26C-55.7952 812.174 -54.7936 822.214 -51.1902 831.469C-47.0279 842.166 -39.6234 851.234 -32.3375 860.104C-26.8177 866.826 -21.0475 873.748 -13.2265 877.555C-5.61897 881.256 3.25644 881.617 11.6047 880.243C31.7147 876.927 48.39 864.369 62.403 850.232C76.4318 836.08 93.8057 823.179 105.217 806.868C110.552 799.242 114.88 790.991 119.718 783.033C120.018 782.54 120.324 781.934 120.073 781.414C119.799 780.848 119.048 780.755 118.418 780.734C116.689 780.682 114.962 780.629 113.233 780.573C114.235 779.374 114.337 777.508 113.468 776.208C112.598 774.909 110.834 774.289 109.342 774.756C110.84 770.702 112.371 766.687 113.937 762.699Z" fill="#F2B430"/>
<path d="M425.765 1074.8C419.781 1048.32 417.045 1021.74 414.636 994.933C413.921 995.162 413.202 995.357 412.487 995.589C394.544 1001.41 376.896 1008.04 359.295 1014.81C367.707 1041.78 377.12 1068.77 385.487 1094.25C386.554 1097.5 389.533 1100.76 390.624 1104.01C392.491 1109.56 387.656 1111.8 392.752 1114.69C396.858 1117.02 401.896 1116.76 406.583 1116.2C429.956 1113.37 430.222 1094.51 425.765 1074.8Z" fill="#DE9983"/>
<path d="M503.265 1094.06C503.416 1093.88 503.558 1093.7 503.692 1093.51C505.991 1090.24 506.046 1085.71 503.729 1082.46C500.474 1077.88 494.482 1077.39 489.115 1077.17C480.016 1074.82 468.07 1076.31 458.643 1075.92C450.664 1075.59 439.363 1077.89 431.867 1075.3C429.057 1074.34 426.452 1072.29 425.601 1069.44C425.308 1068.46 380.191 1080.31 380.876 1087.44C382.27 1101.97 385.821 1110.79 389.372 1119.47C390.149 1121.37 392.179 1122.46 394.19 1122.04C414.013 1117.88 433.744 1113.28 453.4 1108.4C463.81 1105.82 474.214 1103.19 484.579 1100.43C489.972 1098.99 499.448 1098.53 503.265 1094.06Z" fill="black"/>
<path d="M321.411 1064.7C330.352 1064.13 339.244 1062.88 348.024 1061.03C382.118 1053.84 413.929 1038.96 445.132 1023.27C443.408 1018.65 441.692 1014.02 439.955 1009.4C408.913 926.942 384.823 847.138 326.322 779.063C315.868 766.898 303.202 754.477 287.201 753.338C279.957 752.824 272.782 754.733 265.794 756.696C211.487 771.972 159.742 799.581 105.151 811.312C90.3946 814.483 70.9963 820.414 56.8172 825.583C47.5649 828.954 41.8026 835.858 31.9545 838.107C18.0628 841.278 1.90409 840.258 -12.1089 838.56C-17.0988 837.956 -51.641 833.678 -52.6216 828.406C-46.9278 859.007 -32.5801 889.184 -7.52489 907.655C29.8826 935.23 82.4023 929.853 125.873 924.807C138.401 923.352 272.822 899.612 270.858 891.277C281.286 935.507 294.748 979.908 307.725 1023.21C311.9 1037.16 316.287 1051.07 321.411 1064.7Z" fill="#E8654B"/>
<path d="M95.0211 392.433C89.5409 393.218 84.4296 395.81 79.6559 398.662C63.2336 408.478 49.0493 422.017 38.4763 437.964C35.2366 442.852 32.2316 448.356 32.6006 454.208C32.9881 460.363 35.6821 467.409 36.9079 473.413C37.8568 478.069 40.5113 483.074 42.8652 487.16C47.1751 494.644 54.3397 502.512 63.774 498.59C69.8895 496.046 73.1713 490.922 77.3784 486.19C80.8552 482.278 84.7064 479.231 86.9813 474.312C91.2358 465.113 89.3959 446.734 98.8459 440.993C101.672 439.277 105.112 438.842 108.025 437.276C110.937 435.711 113.341 432.11 111.791 429.187C111.28 428.224 110.36 427.27 110.666 426.224C110.816 425.71 111.238 425.33 111.633 424.966C114.306 422.499 118.487 416.478 117.314 412.477C116.499 409.701 109.625 406.981 107.294 409.609C110.658 405.813 114.206 401.828 110.9 397.262C107.914 393.139 101.126 391.871 96.4235 392.272C95.9543 392.314 95.4877 392.367 95.0211 392.433Z" fill="black"/>
<path d="M111.901 774.049C109.982 778.053 106.147 780.758 102.33 783.025C96.8894 786.254 91.1456 788.977 85.2014 791.141" stroke="#131834" stroke-width="1.318" stroke-miterlimit="10"/>
<path d="M99.689 791.542C92.3873 796.005 84.0628 798.78 75.5432 799.597" stroke="#131834" stroke-width="1.318" stroke-miterlimit="10"/>
<path d="M354.276 518.236C354.276 501.363 340.598 487.685 323.725 487.685H293.553C276.68 487.685 263.002 501.363 263.002 518.236H354.276Z" fill="#E8654B"/>
<path d="M352.12 492.427C366.544 464.702 375.583 424.969 375.583 380.827C375.583 297.031 304.677 229.101 304.677 229.101C304.677 229.101 238.972 297.031 238.972 380.827C238.972 424.969 252.434 464.702 266.858 492.427H352.12Z" fill="white"/>
<mask id="mask2_100_1886" style="mask-type:luminance" maskUnits="userSpaceOnUse" x="238" y="229" width="138" height="264">
<path d="M352.12 492.427C366.544 464.702 375.583 424.969 375.583 380.827C375.583 297.031 304.677 229.101 304.677 229.101C304.677 229.101 238.972 297.031 238.972 380.827C238.972 424.969 252.434 464.702 266.858 492.427H352.12Z" fill="white"/>
</mask>
<g mask="url(#mask2_100_1886)">
<path d="M324.342 250.018C313.121 236.751 304.677 229.098 304.677 229.098C304.677 229.098 296.809 236.745 286.36 250.018H324.342Z" fill="#E8654B"/>
</g>
<path d="M346.276 349.996C345.941 328.418 327.595 311.342 305.779 312.863C287.377 314.144 272.281 328.998 270.779 347.384C269.698 360.627 275.421 372.523 284.789 380.049C290.53 384.662 294.437 391.168 295.317 398.48L297.761 418.83L321.287 418.463L323.098 398.042C323.744 390.749 327.379 384.119 332.957 379.374C341.257 372.312 346.458 361.745 346.276 349.996Z" fill="#F2B430"/>
<path d="M303.589 405.666C301.525 396.477 299.461 387.29 297.397 378.101C295.486 369.589 291.548 360.735 290.694 352.16C290.335 348.557 294.751 348.385 297.052 350.065C297.887 350.674 298.567 351.628 298.494 352.658C298.42 353.689 297.315 354.628 296.353 354.251C295.489 353.913 295.212 352.798 295.336 351.878C295.665 349.408 298.243 347.473 300.708 347.848C303.173 348.222 305.06 350.832 304.643 353.291C304.443 354.467 303.128 355.703 302.208 354.946C301.949 354.733 301.81 354.411 301.715 354.09C301.032 351.786 302.482 349.134 304.715 348.243C306.947 347.352 309.668 348.148 311.268 349.941C311.9 350.652 312.391 351.551 312.369 352.503C312.348 353.454 311.692 354.427 310.754 354.577C309.544 354.772 308.468 353.505 308.5 352.281C308.529 351.058 309.357 349.986 310.316 349.224C312.185 347.742 314.895 347.139 317.006 348.246C319.118 349.353 320.111 352.426 318.633 354.295C318.258 354.767 317.729 355.152 317.128 355.207C315.53 355.352 314.676 353.215 315.058 351.657C315.675 349.139 318.272 347.265 320.855 347.476C328.309 348.08 324.622 356.794 323.87 361.115C322.819 367.151 321.77 373.19 320.718 379.227C319.239 387.725 317.76 396.224 316.279 404.725" stroke="#222540" stroke-width="1.318" stroke-miterlimit="10"/>
<path d="M309.718 421.7C304.588 422.001 298.016 422.486 295.678 417.269C293.796 413.067 293.881 407.126 294.426 402.634C294.429 402.603 321.35 402.268 324.118 402.131C323.731 402.149 324.144 412.084 323.984 413.036C323.456 416.141 321.719 418.777 318.82 420.124C316.221 421.331 313.281 421.505 310.421 421.661C310.189 421.674 309.955 421.687 309.718 421.7Z" fill="#1B2258"/>
<path d="M250.737 345.987C255.474 346.461 260.211 346.933 264.95 347.407" stroke="#F2B430" stroke-width="2.636" stroke-miterlimit="10"/>
<path d="M260.216 319.062C262.691 321.498 265.712 323.38 268.991 324.527" stroke="#F2B430" stroke-width="2.636" stroke-miterlimit="10"/>
<path d="M282.543 298.765C284.575 302.827 286.605 306.89 288.637 310.954" stroke="#F2B430" stroke-width="2.636" stroke-miterlimit="10"/>
<path d="M310.242 292.001C310.703 296.741 311.165 301.478 311.626 306.217" stroke="#F2B430" stroke-width="2.636" stroke-miterlimit="10"/>
<path d="M326.553 296.736C324.995 300.663 323.859 304.757 323.168 308.924" stroke="#F2B430" stroke-width="2.636" stroke-miterlimit="10"/>
<path d="M343.503 324.564C346.661 323.43 349.819 322.299 352.977 321.166" stroke="#F2B430" stroke-width="2.636" stroke-miterlimit="10"/>
<path d="M352.281 348.87C355.449 348.599 358.663 348.828 361.76 349.548" stroke="#F2B430" stroke-width="2.636" stroke-miterlimit="10"/>
<path d="M342.82 376.593C344.178 377.265 345.535 377.935 346.893 378.604" stroke="#F2B430" stroke-width="2.636" stroke-miterlimit="10"/>
<path d="M273.063 376.63C271.258 378.209 269.452 379.791 267.646 381.37" stroke="#F2B430" stroke-width="2.636" stroke-miterlimit="10"/>
<path d="M321.031 496.32C312.641 506.833 301.575 516.238 292.66 525.456C278.051 540.56 263.166 555.393 248.014 569.949C233.337 584.046 222.266 611.408 247.129 623.093C256.766 627.622 268.538 625.25 277.543 619.561C286.545 613.873 293.301 605.308 299.63 596.747C314.787 576.246 328.599 554.755 340.957 532.457C350.8 514.693 367.48 492.103 370.794 471.85C372.194 463.294 374.964 453.82 372.913 445.179C372.605 443.877 371.854 442.348 370.517 442.356C369.692 442.361 369.015 442.978 368.427 443.561C363.329 448.598 358.231 453.638 353.133 458.676C351.409 460.378 346.862 467.633 344.023 466.953C343.738 466.884 343.506 466.676 343.316 466.454C341.861 464.778 342.046 462.282 342.312 460.078C342.62 457.537 342.926 454.998 343.234 452.452C343.435 450.799 343.741 447.278 342.375 446.062C340.722 444.589 337.957 445.996 337.095 447.649C336.117 449.523 336.312 451.759 336.202 453.87C335.785 461.805 330.795 468.84 329.678 476.706C329.221 479.909 329.388 483.602 327.753 486.504C325.84 489.894 323.557 493.157 321.031 496.32Z" fill="#D6906F"/>
<path d="M373.635 451.066C370.425 457.532 367.217 464.464 362.353 469.8" stroke="#222540" stroke-width="1.318" stroke-miterlimit="10"/>
<path d="M372.51 463.199C371.192 467.728 367.017 476.173 363.624 479.45" stroke="#222540" stroke-width="1.318" stroke-miterlimit="10"/>
<path d="M372.025 443.642C372.236 445.403 371.311 447.08 370.42 448.611C366.914 454.64 363.376 460.711 358.761 465.938" stroke="#222540" stroke-width="1.318" stroke-miterlimit="10"/>
<path d="M52.9607 610.151C41.676 595.727 35.1756 578.827 38.4601 561.785C39.2693 557.578 40.8246 553.453 43.4474 550.066C47.0982 545.35 52.589 542.355 58.267 540.526C82.5735 532.697 107.009 543.637 128.034 554.436C149.763 565.597 174.665 568.626 198.157 574.219C205.72 576.02 213.077 572.348 220.552 572.627C226.939 572.865 232.04 566.195 238.432 567.614C239.044 567.748 239.708 567.962 240.267 567.682C240.813 567.411 241.047 566.775 241.271 566.209C242.344 563.48 244.506 560.908 247.405 560.488C249.712 560.154 252.039 561.264 253.718 562.879C256.597 565.647 259.734 569.825 261.526 573.379C270.301 590.787 273.678 610.873 271.079 630.192C270.275 636.163 267.115 643.533 261.102 643.146C258.714 642.99 256.141 641.556 254.098 642.803C253.178 643.364 252.627 644.356 251.96 645.199C247.985 650.229 238.627 648.95 236.147 643.04C206.531 665.965 149.341 656.078 115.629 649.933C94.6253 646.106 68.9744 630.622 52.9607 610.151Z" fill="#F2B430"/>
<path d="M85.613 483.644C93.4846 483.644 99.8658 477.263 99.8658 469.391C99.8658 461.519 93.4846 455.138 85.613 455.138C77.7414 455.138 71.3601 461.519 71.3601 469.391C71.3601 477.263 77.7414 483.644 85.613 483.644Z" fill="#D6906F"/>
<path d="M88.109 459.909C84.8562 459.047 81.1869 459.949 78.7064 462.224C76.2259 464.499 75.0081 468.073 75.5854 471.392" stroke="#222540" stroke-width="1.318" stroke-miterlimit="10"/>
<path d="M79.0829 461.992C78.2763 466.209 80.1584 470.82 83.6853 473.269" stroke="#222540" stroke-width="1.318" stroke-miterlimit="10"/>
<path d="M110.399 473.622C113.262 476.424 118.046 477.009 121.502 474.979" stroke="#222540" stroke-width="2.636" stroke-miterlimit="10"/>
<mask id="mask3_100_1886" style="mask-type:luminance" maskUnits="userSpaceOnUse" x="33" y="417" width="91" height="164">
<path d="M44.4831 487.735C44.5463 487.107 44.607 486.483 44.665 485.855C46.0357 471.389 44.7467 458.291 51.6504 445.271C58.1165 433.077 76.9692 415.514 92.3423 417.688C105.905 419.607 113.873 441.162 117.988 451.999C122.145 462.946 125.754 478.683 121.072 490.054C116.918 500.142 99.1985 499.033 98.8453 510.721C98.2917 529.133 97.7382 547.546 97.182 565.955C97.0897 568.971 96.979 572.079 95.719 574.823C90.2783 586.661 52.8498 578.766 44.0666 573.144C28.5669 563.225 33.6491 547.941 37.1814 532.444C40.5423 517.714 42.9805 502.771 44.4831 487.735Z" fill="white"/>
</mask>
<g mask="url(#mask3_100_1886)">
<path d="M108.345 500.891C99.3007 506.103 88.5617 508.322 78.1917 507.123C78.421 508.844 80.2108 509.854 81.8162 510.515C94.7905 515.85 109.784 516.09 122.922 511.174" fill="black"/>
</g>
<path d="M254.926 639.695C255.875 632.027 255.463 624.195 253.716 616.669" stroke="#131834" stroke-width="1.318" stroke-miterlimit="10"/>
<path d="M236.703 642.015C237.763 637.357 238.385 632.602 238.553 627.828" stroke="#131834" stroke-width="1.318" stroke-miterlimit="10"/>
<path d="M257.949 621.715C256.733 613.815 254.532 606.065 251.411 598.705" stroke="#131834" stroke-width="1.318" stroke-miterlimit="10"/>
<path d="M274.398 903.68C273.394 899.457 270.046 896.167 268.562 892.087C266.941 887.637 267.679 882.719 268.435 878.042C269.511 871.397 270.586 864.754 271.662 858.109" stroke="#131834" stroke-width="1.318" stroke-miterlimit="10"/>
<path d="M253.874 898.361C257.533 897.538 261.091 896.26 264.436 894.565C265.396 894.08 265.947 894.043 267.02 894.016" stroke="#131834" stroke-width="1.318" stroke-miterlimit="10"/>
<mask id="mask4_100_1886" style="mask-type:luminance" maskUnits="userSpaceOnUse" x="-58" y="537" width="198" height="344">
<path d="M113.936 762.699C117.07 754.725 120.352 746.859 123.819 738.956C127.812 729.849 132.644 721.205 134.154 711.431C136.123 698.681 131.972 685.925 133.914 673.243C134.782 667.586 136.991 662.22 138.127 656.61C140.636 644.232 137.758 631.212 132.193 619.872C125.587 606.415 110.631 595.732 107.689 581.4C105.678 571.607 115.855 572.638 119.49 566.749C124.857 558.058 118.576 547.733 108.725 544.947C84.0307 537.964 56.9696 533.169 33.2324 542.919C10.3651 552.312 -5.46408 573.805 -15.4862 596.404C-43.9286 660.538 -60.5907 732.058 -56.389 802.262C-55.7959 812.176 -54.7942 822.217 -51.1908 831.472C-47.0285 842.169 -39.624 851.237 -32.3381 860.107C-26.8183 866.828 -21.0481 873.751 -13.2271 877.557C-5.61958 881.258 3.25582 881.619 11.604 880.246C31.7141 876.93 48.3894 864.372 62.4024 850.235C76.4312 836.082 93.8051 823.182 105.216 806.87C110.552 799.244 114.88 790.993 119.717 783.035C120.017 782.542 120.323 781.936 120.073 781.417C119.799 780.85 119.047 780.758 118.417 780.737C116.688 780.684 114.962 780.631 113.232 780.576C114.234 779.377 114.337 777.51 113.467 776.211C112.597 774.911 110.834 774.292 109.342 774.758C110.839 770.701 112.37 766.687 113.936 762.699Z" fill="white"/>
</mask>
<g mask="url(#mask4_100_1886)">
<path d="M148.343 652.622C142.083 652.535 135.878 651.359 129.723 649.171C125.587 647.703 121.601 645.879 117.687 643.902C117.146 643.752 116.606 643.591 116.063 643.438C115.726 644.371 115.53 645.463 115.546 646.778C115.691 658.69 139.46 667.22 148.47 670.167C148.151 664.323 148.13 658.469 148.343 652.622Z" fill="black"/>
</g>
<path d="M206.903 574.154C174.565 576.428 142.651 565.02 114.248 549.396" stroke="#131834" stroke-width="1.318" stroke-miterlimit="10"/>
<path d="M437.397 1003.47C425.954 972.614 414.085 941.918 401.793 911.393C390.89 884.321 373.97 850.754 358.523 825.968" stroke="#131834" stroke-width="1.318" stroke-miterlimit="10"/>
<path d="M104.399 810.508C110.38 810.814 115.386 806.211 121.077 804.353C123.843 803.451 126.769 803.203 129.647 802.779C137.407 801.638 144.97 799.17 151.911 795.512C167.215 787.448 184.426 788.12 199.585 780.621" stroke="#131834" stroke-width="1.318" stroke-miterlimit="10"/>
<path d="M-95.3218 769.022C-64.8786 752.803 -29.7223 743.029 5.34177 745.256C40.4058 747.484 77.2097 761.083 96.0202 788.711C137.548 849.705 121.041 930.095 100.683 960.304" stroke="black" stroke-width="7.908" stroke-miterlimit="10"/>
<path d="M223.9 547.3C222.139 544.451 220.375 541.604 218.615 538.757" stroke="#131834" stroke-width="1.318" stroke-miterlimit="10"/>
<path d="M185.815 508.512C190.425 511.432 194.086 515.821 196.135 520.88" stroke="#131834" stroke-width="1.318" stroke-miterlimit="10"/>
<path d="M177.609 512.023C181.101 514.401 184.594 516.778 188.087 519.159" stroke="#131834" stroke-width="1.318" stroke-miterlimit="10"/>
<path d="M324.075 182.39C334.139 172.325 334.139 156.008 324.075 145.943C314.01 135.878 297.692 135.878 287.628 145.943C277.563 156.007 277.563 172.325 287.628 182.39C297.692 192.454 314.01 192.454 324.075 182.39Z" fill="#F2B430"/>
<path d="M304.353 178.377C304.219 178.403 304.113 178.416 304.034 178.416C303.955 178.416 303.874 178.416 303.795 178.416C302.967 178.416 302.221 178.39 301.554 178.337C300.887 178.284 300.268 178.203 299.693 178.097C299.121 177.989 298.567 177.857 298.035 177.696C297.502 177.536 296.954 177.364 296.395 177.177C296.448 176.592 296.561 175.996 296.735 175.398C296.909 174.797 297.102 174.217 297.315 173.658C298.222 173.951 299.155 174.212 300.115 174.438C301.074 174.665 302.234 174.778 303.594 174.778C305.779 174.778 307.406 174.351 308.473 173.497C309.538 172.643 310.074 171.47 310.074 169.978C310.074 169.232 309.96 168.605 309.733 168.099C309.507 167.593 309.167 167.152 308.713 166.778C308.26 166.406 307.688 166.066 306.995 165.758C306.301 165.452 305.489 165.099 304.556 164.698L302.637 163.9C301.839 163.578 301.103 163.22 300.439 162.819C299.772 162.418 299.192 161.946 298.699 161.398C298.206 160.852 297.824 160.204 297.56 159.458C297.294 158.712 297.16 157.818 297.16 156.777C297.16 154.724 297.779 153.045 299.021 151.737C300.26 150.432 302.039 149.618 304.359 149.299V145.419C304.759 145.313 305.21 145.258 305.719 145.258C306.251 145.258 306.731 145.311 307.158 145.419V149.138C308.278 149.191 309.378 149.312 310.458 149.497C311.539 149.684 312.464 149.924 313.239 150.216C313.105 151.336 312.812 152.444 312.359 153.535C311.639 153.269 310.812 153.034 309.878 152.836C308.945 152.636 307.865 152.536 306.639 152.536C304.96 152.536 303.665 152.855 302.759 153.495C301.852 154.136 301.398 155.122 301.398 156.456C301.398 157.096 301.52 157.65 301.76 158.116C301.999 158.583 302.353 158.997 302.819 159.355C303.286 159.716 303.845 160.043 304.498 160.336C305.152 160.628 305.89 160.95 306.718 161.295L308.239 161.936C309.198 162.336 310.066 162.75 310.838 163.175C311.61 163.602 312.272 164.108 312.818 164.696C313.363 165.284 313.79 165.974 314.099 166.776C314.404 167.574 314.56 168.55 314.56 169.696C314.56 171.963 313.914 173.808 312.62 175.234C311.326 176.661 309.507 177.602 307.161 178.055V182.655C306.947 182.708 306.721 182.747 306.481 182.776C306.241 182.802 306.014 182.816 305.801 182.816C305.561 182.816 305.321 182.802 305.081 182.776C304.841 182.75 304.601 182.71 304.361 182.655V178.377H304.353Z" fill="white"/>
<path d="M330.966 98.9665C334.237 85.1144 325.659 71.2335 311.807 67.9626C297.955 64.6917 284.074 73.2695 280.803 87.1216C277.532 100.974 286.11 114.855 299.962 118.126C313.814 121.396 327.695 112.819 330.966 98.9665Z" fill="#F2B430"/>
<path d="M304.353 107.207C304.219 107.234 304.113 107.247 304.034 107.247C303.955 107.247 303.873 107.247 303.794 107.247C302.967 107.247 302.221 107.22 301.554 107.168C300.887 107.115 300.267 107.033 299.693 106.928C299.121 106.82 298.567 106.688 298.035 106.527C297.502 106.366 296.954 106.195 296.395 106.008C296.448 105.423 296.561 104.827 296.735 104.228C296.909 103.627 297.101 103.05 297.315 102.489C298.222 102.781 299.155 103.042 300.114 103.269C301.074 103.496 302.234 103.609 303.594 103.609C305.779 103.609 307.406 103.182 308.473 102.331C309.538 101.477 310.073 100.303 310.073 98.8115C310.073 98.0655 309.96 97.4382 309.733 96.932C309.506 96.4259 309.166 95.9857 308.713 95.6114C308.26 95.2371 307.688 94.897 306.994 94.5913C306.301 94.2855 305.489 93.9323 304.556 93.5316L302.637 92.7329C301.838 92.4139 301.103 92.0528 300.439 91.6521C299.772 91.2515 299.192 90.7796 298.699 90.2313C298.206 89.6857 297.824 89.0399 297.56 88.2912C297.294 87.5452 297.159 86.6516 297.159 85.6104C297.159 83.557 297.779 81.8778 299.02 80.5704C300.259 79.2656 302.039 78.4511 304.358 78.1321V74.2519C304.759 74.1465 305.21 74.0911 305.719 74.0911C306.251 74.0911 306.731 74.1465 307.158 74.2519V77.9713C308.278 78.024 309.377 78.1453 310.458 78.3298C311.539 78.5169 312.464 78.7568 313.239 79.0494C313.105 80.1697 312.812 81.2768 312.359 82.3681C311.639 82.1019 310.811 81.8673 309.878 81.667C308.945 81.4666 307.864 81.3665 306.639 81.3665C304.959 81.3665 303.665 81.6854 302.758 82.326C301.852 82.9665 301.398 83.9524 301.398 85.2862C301.398 85.9267 301.519 86.4803 301.759 86.9469C301.999 87.4134 302.352 87.8273 302.819 88.1858C303.286 88.5469 303.844 88.8738 304.498 89.1664C305.152 89.459 305.89 89.7806 306.718 90.1259L308.239 90.7664C309.198 91.1671 310.065 91.581 310.838 92.0054C311.61 92.4324 312.272 92.9385 312.817 93.5237C313.363 94.1115 313.79 94.8048 314.098 95.6035C314.404 96.4022 314.56 97.3775 314.56 98.5242C314.56 100.791 313.914 102.636 312.62 104.062C311.325 105.489 309.507 106.43 307.16 106.883V111.483C306.947 111.535 306.72 111.575 306.48 111.604C306.241 111.63 306.014 111.644 305.8 111.644C305.56 111.644 305.321 111.63 305.081 111.604C304.841 111.578 304.601 111.538 304.361 111.483V107.207H304.353Z" fill="white"/>
<path d="M330.97 27.7935C334.241 13.9414 325.663 0.0604908 311.811 -3.21039C297.959 -6.48126 284.078 2.09647 280.807 15.9486C277.536 29.8007 286.114 43.6817 299.966 46.9525C313.818 50.2234 327.699 41.6456 330.97 27.7935Z" fill="#F2B430"/>
<path d="M304.353 36.0379C304.218 36.0642 304.113 36.0774 304.034 36.0774C303.955 36.0774 303.873 36.0774 303.794 36.0774C302.966 36.0774 302.22 36.051 301.553 35.9983C300.887 35.9456 300.267 35.8639 299.692 35.7584C299.12 35.6504 298.567 35.5186 298.034 35.3578C297.502 35.197 296.954 35.0256 296.395 34.8385C296.447 34.2533 296.561 33.6576 296.735 33.0592C296.909 32.4582 297.101 31.8783 297.315 31.3194C298.222 31.612 299.155 31.873 300.114 32.0997C301.074 32.3264 302.234 32.4397 303.594 32.4397C305.779 32.4397 307.405 32.0127 308.473 31.1586C309.538 30.3046 310.073 29.1315 310.073 27.6396C310.073 26.8936 309.96 26.2662 309.733 25.7601C309.506 25.254 309.166 24.8138 308.713 24.4395C308.259 24.0678 307.687 23.7277 306.994 23.4193C306.301 23.1135 305.489 22.7603 304.556 22.3597L302.637 21.5609C301.838 21.242 301.103 20.8809 300.438 20.4802C299.772 20.0795 299.192 19.6077 298.699 19.0594C298.206 18.5137 297.824 17.8653 297.56 17.1193C297.294 16.3733 297.159 15.4797 297.159 14.4385C297.159 12.385 297.779 10.7059 299.02 9.39845C300.259 8.09363 302.039 7.2791 304.358 6.96014V3.07995C304.759 2.97451 305.21 2.91916 305.718 2.91916C306.251 2.91916 306.731 2.97187 307.158 3.07995V6.79935C308.278 6.85207 309.377 6.97332 310.458 7.15784C311.539 7.345 312.464 7.58487 313.239 7.87747C313.104 8.99777 312.812 10.1049 312.358 11.1962C311.639 10.93 310.811 10.6954 309.878 10.495C308.945 10.2947 307.864 10.1945 306.638 10.1945C304.959 10.1945 303.665 10.5135 302.758 11.154C301.851 11.7946 301.398 12.7804 301.398 14.1142C301.398 14.7548 301.519 15.3084 301.759 15.7749C301.999 16.2415 302.352 16.6554 302.819 17.0139C303.285 17.3723 303.844 17.7018 304.498 17.9944C305.152 18.287 305.89 18.6086 306.717 18.9539L308.238 19.5945C309.198 19.9952 310.065 20.409 310.837 20.8334C311.61 21.2604 312.271 21.7666 312.817 22.3544C313.363 22.9422 313.79 23.6355 314.098 24.4342C314.404 25.2355 314.56 26.2082 314.56 27.3549C314.56 29.6218 313.914 31.467 312.619 32.8931C311.325 34.3192 309.506 35.2602 307.16 35.7136V40.3135C306.947 40.3662 306.72 40.4057 306.48 40.4347C306.24 40.4611 306.014 40.4742 305.8 40.4742C305.56 40.4742 305.32 40.4611 305.08 40.4347C304.841 40.4083 304.601 40.3688 304.361 40.3135V36.0379H304.353Z" fill="white"/>
<path d="M476.363 29.9251L624.111 28.2459L544.965 126.202L511.251 71.9192L496.065 90.8905L495.219 51.4217L476.363 29.9251Z" fill="#70A1BD"/>
<mask id="mask5_100_1886" style="mask-type:luminance" maskUnits="userSpaceOnUse" x="476" y="28" width="149" height="99">
<path d="M476.363 29.9251L624.111 28.2459L552.214 126.653L511.251 71.9192L496.065 90.8905L495.219 51.4217L476.363 29.9251Z" fill="white"/>
</mask>
<g mask="url(#mask5_100_1886)">
<path d="M599.907 39.7916L511.25 71.9192L498.869 109.88L477.465 89.5988L495.218 51.4216L599.907 39.7916Z" fill="black"/>
</g>
<path d="M771.713 83.1853C715.622 83.1853 670.151 128.656 670.151 184.748C670.151 240.839 715.622 286.31 771.713 286.31C827.805 286.31 873.275 240.839 873.275 184.748C873.275 128.656 827.805 83.1853 771.713 83.1853ZM771.713 247.498C737.058 247.498 708.963 219.403 708.963 184.748C708.963 150.092 737.058 121.998 771.713 121.998C806.369 121.998 834.463 150.092 834.463 184.748C834.463 219.403 806.371 247.498 771.713 247.498Z" fill="white"/>
<path d="M419.989 -95.2929C390.822 -95.2929 367.177 -71.648 367.177 -42.4807C367.177 -13.3133 390.822 10.3316 419.989 10.3316C449.156 10.3316 472.801 -13.3133 472.801 -42.4807C472.801 -71.648 449.156 -95.2929 419.989 -95.2929ZM419.989 -9.84963C401.967 -9.84963 387.358 -24.4584 387.358 -42.4807C387.358 -60.503 401.967 -75.1117 419.989 -75.1117C438.011 -75.1117 452.62 -60.503 452.62 -42.4807C452.62 -24.461 438.011 -9.84963 419.989 -9.84963Z" fill="white"/>
<path d="M-0.742878 157.231C-15.4649 107.666 -34.7156 60.0466 -58.176 14.2329L-18.1088 -17.979C20.0209 14.3331 62.7083 43.0787 109.207 68.8403L-0.742878 157.231Z" fill="#F2B430"/>
<path d="M41.3149 97.6466C10.9534 122.056 -7.94934 148.946 -0.905951 157.708C6.13744 166.47 36.462 153.788 66.8234 129.379C97.1849 104.972 116.088 78.0795 109.044 69.3175C102.001 60.5554 71.6789 73.2399 41.3149 97.6466Z" fill="#E8654B"/>
<mask id="mask6_100_1886" style="mask-type:luminance" maskUnits="userSpaceOnUse" x="-3" y="66" width="114" height="95">
<path d="M41.3149 97.6466C10.9534 122.056 -7.94934 148.946 -0.905951 157.708C6.13744 166.47 36.462 153.788 66.8234 129.379C97.1849 104.972 116.088 78.0795 109.044 69.3175C102.001 60.5554 71.6789 73.2399 41.3149 97.6466Z" fill="white"/>
</mask>
<g mask="url(#mask6_100_1886)">
<path d="M57.9138 118.803C48.6193 126.273 35.3154 125.156 28.2009 116.304C21.0863 107.452 22.8498 94.2197 32.1443 86.7466C41.4388 79.2762 54.7427 80.3939 61.8573 89.2456C68.9719 98.0999 67.2057 111.333 57.9138 118.803Z" fill="#1B2258"/>
</g>
<path d="M41.3149 97.6466C10.9534 122.056 -7.94934 148.946 -0.905951 157.708C6.13744 166.47 36.462 153.788 66.8234 129.379C97.1849 104.972 116.088 78.0795 109.044 69.3175C102.001 60.5554 71.6789 73.2399 41.3149 97.6466Z" stroke="white" stroke-width="5.272" stroke-miterlimit="10"/>
<mask id="mask7_100_1886" style="mask-type:luminance" maskUnits="userSpaceOnUse" x="-59" y="-18" width="169" height="176">
<path d="M-0.742878 157.231C-15.4649 107.666 -34.7156 60.0466 -58.176 14.2329L-18.1088 -17.979C20.0209 14.3331 62.7083 43.0787 109.207 68.8403L-0.742878 157.231Z" fill="white"/>
</mask>
<g mask="url(#mask7_100_1886)">
<path d="M92.7611 59.2453C85.6044 50.3409 57.56 61.0035 30.1245 83.0616C2.68899 105.117 -13.7518 130.214 -6.59503 139.119" stroke="#1B2258" stroke-width="2.636" stroke-miterlimit="10"/>
</g>
<path d="M1.6322 863.832C-0.608398 854.063 -8.44523 846.431 -21.9336 847.217C-62.9103 849.603 -107.116 884.545 -119.339 922.659C-100.465 912.922 -78.8475 905.607 -57.5723 903.854C-39.6185 902.375 -25.6688 906.664 -9.88711 894.531C0.132332 886.831 3.99406 874.141 1.6322 863.832ZM-72.848 875.765C-71.3059 883.965 -88.0709 890.495 -76.86 873.205C-76.6596 873.414 -73.7706 871.176 -72.848 875.765ZM-28.5948 891.449C-31.0357 896.146 -52.8249 884.356 -39.7319 881.894C-37.2883 882.669 -25.7216 884.411 -28.5948 891.449ZM-18.1299 881.527C-18.3987 884.3 -33.5004 883.973 -30.8697 876.919C-28.4973 875.557 -19.1421 875.23 -18.1299 881.527Z" fill="#1C6652"/>
</g>
</g>
<defs>
<clipPath id="clip0_100_1886">
<rect width="733" height="1080" fill="white"/>
</clipPath>
</defs>
</svg>
